<svg width="54" height="44" viewBox="0 0 54 44" fill="none" xmlns="http://www.w3.org/2000/svg">
<path d="M50.1429 0H3.85714C2.83416 0 1.85309 0.46357 1.12973 1.28873C0.406376 2.11389 0 3.23305 0 4.4V39.6C0 40.767 0.406376 41.8861 1.12973 42.7113C1.85309 43.5364 2.83416 44 3.85714 44H50.1429C51.1658 44 52.1469 43.5364 52.8703 42.7113C53.5936 41.8861 54 40.767 54 39.6V4.4C54 3.23305 53.5936 2.11389 52.8703 1.28873C52.1469 0.46357 51.1658 0 50.1429 0V0ZM45.9 4.4L27 19.316L8.1 4.4H45.9ZM3.85714 39.6V6.402L25.9007 23.804C26.2235 24.0595 26.6071 24.1964 27 24.1964C27.3929 24.1964 27.7765 24.0595 28.0993 23.804L50.1429 6.402V39.6H3.85714Z" fill="#FF1C4E"/>
</svg>
