<svg width="54" height="54" viewBox="0 0 54 54" fill="none" xmlns="http://www.w3.org/2000/svg">
<path d="M27.003 2.32051e-06C12.0838 -0.0061946 0 12.4 0 27.7126C0 39.8214 7.55915 50.1145 18.0865 53.8946C19.5042 54.2603 19.287 53.2254 19.287 52.5189V47.7163C11.1004 48.7016 10.7686 43.1368 10.2196 42.2073C9.1096 40.2614 6.48531 39.7657 7.26958 38.8361C9.13373 37.8508 11.0341 39.084 13.2361 42.4241C14.8287 44.8471 17.9356 44.4381 19.5102 44.0353C19.8541 42.5791 20.5901 41.2777 21.6036 40.2676C13.1214 38.706 9.58619 33.389 9.58619 27.0682C9.58619 24.0007 10.5695 21.1811 12.5001 18.9068C11.2694 15.1577 12.6147 11.9477 12.7957 11.4705C16.3007 11.1483 19.9446 14.0484 20.2281 14.2777C22.219 13.7262 24.4934 13.4349 27.0392 13.4349C29.5971 13.4349 31.8776 13.7386 33.8865 14.2963C34.5682 13.7634 37.9466 11.2722 41.2043 11.5759C41.3793 12.053 42.6945 15.1887 41.5361 18.8882C43.4908 21.1687 44.4862 24.0131 44.4862 27.0868C44.4862 33.42 40.9268 38.7432 32.4205 40.28C33.1491 41.016 33.7276 41.8938 34.1223 42.862C34.5169 43.8302 34.7198 44.8695 34.719 45.9192V52.8907C34.7673 53.4485 34.719 54 35.624 54C46.3081 50.3004 54 39.933 54 27.7188C54 12.4 41.9102 2.32051e-06 27.003 2.32051e-06Z" fill="#FF1C4E"/>
</svg>
