<svg width="54" height="54" viewBox="0 0 54 54" fill="none" xmlns="http://www.w3.org/2000/svg">
<path d="M10.582 0C4.76272 0 0 4.76261 0 10.582V43.4197C0 49.239 4.76261 54 10.582 54H43.4197C49.2391 54 54 49.2391 54 43.4197V10.582C54 4.76272 49.2391 0 43.4197 0H10.582ZM13.2435 8.91109C16.0337 8.91109 17.7524 10.7428 17.8054 13.1506C17.8054 15.5052 16.0336 17.3884 13.1895 17.3884H13.1372C10.4001 17.3884 8.63097 15.5053 8.63097 13.1506C8.63097 10.7429 10.4536 8.91109 13.2435 8.91109H13.2435ZM37.2883 20.1647C42.6544 20.1647 46.6771 23.6721 46.6771 31.2091V45.2795H38.5221V32.1525C38.5221 28.8538 37.3418 26.6033 34.3906 26.6033C32.1376 26.6033 30.7946 28.1202 30.205 29.5855C29.9896 30.1097 29.9367 30.8419 29.9367 31.5753V45.2795H21.7817C21.7817 45.2795 21.8887 23.0427 21.7817 20.7402H29.9384V24.2152C31.0221 22.5432 32.9606 20.1647 37.2883 20.1647V20.1647ZM9.112 20.742H17.267V45.2796H9.112V20.742Z" fill="#FF1C4E"/>
</svg>
