<svg width="294" height="78" viewBox="0 0 294 78" fill="none" xmlns="http://www.w3.org/2000/svg">
<path d="M33.664 54.512L4.16 43.056V36.144L33.664 24.688V31.344L6.656 41.456V37.744L33.664 47.856V54.512Z" fill="#FF1C4E"/>
<path d="M230.08 68.4L251.2 8.112H258.368L237.248 68.4H230.08ZM259.91 54.512V47.856L286.918 37.744V41.456L259.91 31.344V24.688L289.414 36.144V43.056L259.91 54.512Z" fill="#FF1C4E"/>
<path d="M68.008 51V28.6H77.8C80.232 28.6 82.3653 29.0693 84.2 30.008C86.0347 30.9467 87.464 32.248 88.488 33.912C89.512 35.576 90.024 37.5387 90.024 39.8C90.024 42.04 89.512 44.0027 88.488 45.688C87.464 47.352 86.0347 48.6533 84.2 49.592C82.3653 50.5307 80.232 51 77.8 51H68.008ZM72.168 47.48H77.608C79.2933 47.48 80.744 47.16 81.96 46.52C83.1973 45.88 84.1467 44.984 84.808 43.832C85.4907 42.68 85.832 41.336 85.832 39.8C85.832 38.2427 85.4907 36.8987 84.808 35.768C84.1467 34.616 83.1973 33.72 81.96 33.08C80.744 32.44 79.2933 32.12 77.608 32.12H72.168V47.48ZM102.094 51.224C100.195 51.224 98.5308 50.8507 97.1015 50.104C95.6935 49.336 94.5948 48.2907 93.8055 46.968C93.0375 45.6453 92.6535 44.1413 92.6535 42.456C92.6535 40.7493 93.0268 39.2453 93.7735 37.944C94.5415 36.6213 95.5868 35.5867 96.9095 34.84C98.2535 34.0933 99.7788 33.72 101.486 33.72C103.15 33.72 104.632 34.0827 105.934 34.808C107.235 35.5333 108.259 36.5573 109.006 37.88C109.752 39.2027 110.126 40.76 110.126 42.552C110.126 42.7227 110.115 42.9147 110.094 43.128C110.094 43.3413 110.083 43.544 110.062 43.736H95.8215V41.08H107.95L106.382 41.912C106.403 40.9307 106.2 40.0667 105.774 39.32C105.347 38.5733 104.76 37.9867 104.014 37.56C103.288 37.1333 102.446 36.92 101.486 36.92C100.504 36.92 99.6402 37.1333 98.8935 37.56C98.1682 37.9867 97.5922 38.584 97.1655 39.352C96.7602 40.0987 96.5575 40.984 96.5575 42.008V42.648C96.5575 43.672 96.7922 44.5787 97.2615 45.368C97.7308 46.1573 98.3922 46.7653 99.2455 47.192C100.099 47.6187 101.08 47.832 102.19 47.832C103.15 47.832 104.014 47.6827 104.782 47.384C105.55 47.0853 106.232 46.616 106.83 45.976L108.974 48.44C108.206 49.336 107.235 50.0293 106.062 50.52C104.91 50.9893 103.587 51.224 102.094 51.224ZM123.664 33.72C125.029 33.72 126.245 33.9867 127.312 34.52C128.4 35.0533 129.253 35.8747 129.872 36.984C130.49 38.072 130.8 39.48 130.8 41.208V51H126.8V41.72C126.8 40.2053 126.437 39.0747 125.712 38.328C125.008 37.5813 124.016 37.208 122.736 37.208C121.797 37.208 120.965 37.4 120.24 37.784C119.514 38.168 118.949 38.744 118.544 39.512C118.16 40.2587 117.968 41.208 117.968 42.36V51H113.968V33.912H117.776V38.52L117.104 37.112C117.701 36.024 118.565 35.192 119.696 34.616C120.848 34.0187 122.17 33.72 123.664 33.72ZM135.874 51V33.912H139.874V51H135.874ZM137.89 31.096C137.143 31.096 136.525 30.8613 136.034 30.392C135.565 29.9227 135.33 29.3573 135.33 28.696C135.33 28.0133 135.565 27.448 136.034 27C136.525 26.5307 137.143 26.296 137.89 26.296C138.637 26.296 139.245 26.52 139.714 26.968C140.205 27.3947 140.45 27.9387 140.45 28.6C140.45 29.304 140.215 29.9013 139.746 30.392C139.277 30.8613 138.658 31.096 137.89 31.096ZM152.356 51.224C150.713 51.224 149.231 50.8613 147.908 50.136C146.607 49.3893 145.583 48.3653 144.836 47.064C144.089 45.7627 143.716 44.2267 143.716 42.456C143.716 40.6853 144.089 39.1493 144.836 37.848C145.583 36.5467 146.607 35.5333 147.908 34.808C149.231 34.0827 150.713 33.72 152.356 33.72C153.785 33.72 155.065 34.04 156.196 34.68C157.327 35.2987 158.223 36.248 158.884 37.528C159.545 38.808 159.876 40.4507 159.876 42.456C159.876 44.44 159.556 46.0827 158.916 47.384C158.276 48.664 157.391 49.624 156.26 50.264C155.129 50.904 153.828 51.224 152.356 51.224ZM152.836 47.8C153.796 47.8 154.649 47.5867 155.396 47.16C156.164 46.7333 156.772 46.1147 157.22 45.304C157.689 44.4933 157.924 43.544 157.924 42.456C157.924 41.3467 157.689 40.3973 157.22 39.608C156.772 38.7973 156.164 38.1787 155.396 37.752C154.649 37.3253 153.796 37.112 152.836 37.112C151.876 37.112 151.012 37.3253 150.244 37.752C149.497 38.1787 148.889 38.7973 148.42 39.608C147.972 40.3973 147.748 41.3467 147.748 42.456C147.748 43.544 147.972 44.4933 148.42 45.304C148.889 46.1147 149.497 46.7333 150.244 47.16C151.012 47.5867 151.876 47.8 152.836 47.8ZM158.02 51V46.968L158.18 42.424L157.86 37.88V27.256H161.828V51H158.02ZM175.125 51.224C173.226 51.224 171.562 50.8507 170.133 50.104C168.725 49.336 167.626 48.2907 166.837 46.968C166.069 45.6453 165.685 44.1413 165.685 42.456C165.685 40.7493 166.058 39.2453 166.805 37.944C167.573 36.6213 168.618 35.5867 169.941 34.84C171.285 34.0933 172.81 33.72 174.517 33.72C176.181 33.72 177.663 34.0827 178.965 34.808C180.266 35.5333 181.29 36.5573 182.037 37.88C182.783 39.2027 183.157 40.76 183.157 42.552C183.157 42.7227 183.146 42.9147 183.125 43.128C183.125 43.3413 183.114 43.544 183.093 43.736H168.853V41.08H180.981L179.413 41.912C179.434 40.9307 179.231 40.0667 178.805 39.32C178.378 38.5733 177.791 37.9867 177.045 37.56C176.319 37.1333 175.477 36.92 174.517 36.92C173.535 36.92 172.671 37.1333 171.925 37.56C171.199 37.9867 170.623 38.584 170.197 39.352C169.791 40.0987 169.589 40.984 169.589 42.008V42.648C169.589 43.672 169.823 44.5787 170.293 45.368C170.762 46.1573 171.423 46.7653 172.277 47.192C173.13 47.6187 174.111 47.832 175.221 47.832C176.181 47.832 177.045 47.6827 177.813 47.384C178.581 47.0853 179.263 46.616 179.861 45.976L182.005 48.44C181.237 49.336 180.266 50.0293 179.093 50.52C177.941 50.9893 176.618 51.224 175.125 51.224ZM191.231 51L183.902 33.912H188.062L194.367 48.984H192.319L198.847 33.912H202.687L195.359 51H191.231ZM210.248 51.224C208.818 51.224 207.442 51.0427 206.12 50.68C204.818 50.296 203.784 49.8373 203.016 49.304L204.552 46.264C205.32 46.7547 206.237 47.16 207.304 47.48C208.37 47.8 209.437 47.96 210.504 47.96C211.762 47.96 212.669 47.7893 213.224 47.448C213.8 47.1067 214.088 46.648 214.088 46.072C214.088 45.6027 213.896 45.2507 213.512 45.016C213.128 44.76 212.626 44.568 212.008 44.44C211.389 44.312 210.696 44.1947 209.928 44.088C209.181 43.9813 208.424 43.8427 207.656 43.672C206.909 43.48 206.226 43.2133 205.608 42.872C204.989 42.5093 204.488 42.0293 204.104 41.432C203.72 40.8347 203.528 40.0453 203.528 39.064C203.528 37.976 203.837 37.0373 204.456 36.248C205.074 35.4373 205.938 34.8187 207.048 34.392C208.178 33.944 209.512 33.72 211.048 33.72C212.2 33.72 213.362 33.848 214.536 34.104C215.709 34.36 216.68 34.7227 217.448 35.192L215.912 38.232C215.101 37.7413 214.28 37.4107 213.448 37.24C212.637 37.048 211.826 36.952 211.016 36.952C209.8 36.952 208.893 37.1333 208.296 37.496C207.72 37.8587 207.432 38.3173 207.432 38.872C207.432 39.384 207.624 39.768 208.008 40.024C208.392 40.28 208.893 40.4827 209.512 40.632C210.13 40.7813 210.813 40.9093 211.56 41.016C212.328 41.1013 213.085 41.24 213.832 41.432C214.578 41.624 215.261 41.8907 215.88 42.232C216.52 42.552 217.032 43.0107 217.416 43.608C217.8 44.2053 217.992 44.984 217.992 45.944C217.992 47.0107 217.672 47.9387 217.032 48.728C216.413 49.5173 215.528 50.136 214.376 50.584C213.224 51.0107 211.848 51.224 210.248 51.224Z" fill="#BFBFBF"/>
</svg>
