<svg width="54" height="50" viewBox="0 0 54 50" fill="none" xmlns="http://www.w3.org/2000/svg">
<path d="M47.7714 50H47.4185C6.62196 47.8269 0.829477 15.9423 0.019775 6.21154C-0.0454677 5.45496 0.0511015 4.69389 0.303949 3.97194C0.556797 3.24999 0.960953 2.58135 1.49326 2.00433C2.02557 1.42731 2.67557 0.953246 3.40601 0.609307C4.13646 0.265367 4.93299 0.0583112 5.74997 1.80306e-06H17.1896C18.0212 -0.000743896 18.8339 0.229828 19.5224 0.661851C20.211 1.09387 20.7436 1.70744 21.0513 2.42308L24.207 9.61539C24.5109 10.3145 24.5863 11.0809 24.4239 11.8194C24.2615 12.5579 23.8684 13.2359 23.2935 13.7692L18.8713 17.9038C19.5621 21.5399 21.442 24.8917 24.2566 27.5057C27.0713 30.1197 30.6849 31.8698 34.6086 32.5192L39.1138 28.3846C39.6983 27.858 40.4372 27.5024 41.2383 27.3622C42.0395 27.222 42.8675 27.3033 43.6191 27.5962L51.4462 30.5C52.2072 30.794 52.8564 31.2912 53.3112 31.9282C53.766 32.5652 54.0057 33.3132 53.9999 34.0769V44.2308C53.9999 45.7609 53.3437 47.2283 52.1756 48.3102C51.0076 49.3922 49.4233 50 47.7714 50ZM6.24825 3.84616C5.69762 3.84616 5.16954 4.04877 4.78019 4.40941C4.39083 4.77006 4.17209 5.2592 4.17209 5.76923V5.92308C5.12713 17.3077 11.2518 44.2308 47.6469 46.1538C47.9196 46.1695 48.193 46.135 48.4514 46.0526C48.7097 45.9701 48.948 45.8412 49.1524 45.6733C49.3569 45.5053 49.5235 45.3016 49.6428 45.0739C49.7621 44.8462 49.8317 44.5988 49.8476 44.3462V34.0769L42.0205 31.1731L36.0619 36.6538L35.0653 36.5385C17.0028 34.4423 14.5529 17.7115 14.5529 17.5385L14.4283 16.6154L20.3246 11.0962L17.2104 3.84616H6.24825Z" fill="#FF1C4E"/>
</svg>
